# xmcd
#
# Track frame offsets:
#	150
#	16664
#	35321
#	55004
#	71741
#	85228
#	101274
#	117195
#	134261
#	149790
#	162895
#	174516
#	191233
#	207259
#	221541
#	241957
#	254794
#	265743
#	281565
#	295488
#
# Disc length: 4137 seconds
#
# Revision: 1
# Processed by: cddbd v1.5.2PL0 Copyright (c) Steve Scherf et al.
# Submitted via: EZCDAudioConverter 8.0.2.1
#
DISCID=30102714
DTITLE=Music Without Words - Violín
DYEAR=2004
DGENRE=Violín
TTITLE0=Blue Navajo (El Navajo Azul)
TTITLE1=La Bella Cubana
TTITLE2=Exotic Night (Noche Exotica)
TTITLE3=Orchids in the Moonlight (Orquideas A La Luz De La Luna)
TTITLE4=Aria De Fiesta
TTITLE5=El Dia Que Me Quieras
TTITLE6=Pearls Fisherman (El Pescador De Perlas)
TTITLE7=I Just Called To Say i Love You (Solo Llame Para Decirte Que te Amo)
TTITLE8=Amarte Es Un Placer
TTITLE9=Don't You Know (Tu no sabes)
TTITLE10=Softly a in a morning sunrise (Suave Como El Amanecer)
TTITLE11=Burbujas De Amor
TTITLE12=Peregrina
TTITLE13=Sleepy Shores (Playas De Ensueño)
TTITLE14=Couldn't we be friends (No Podriamos Ser Amigos?)
TTITLE15=La Cumparsita
TTITLE16=Something Stupid (Algo Tonto)
TTITLE17=Those were the days (Esos Fueron Los Dias)
TTITLE18=Flor De Azalea
TTITLE19=El Huapango De Moncayo
EXTD=
EXTT0=
EXTT1=
EXTT2=
EXTT3=
EXTT4=
EXTT5=
EXTT6=
EXTT7=
EXTT8=
EXTT9=
EXTT10=
EXTT11=
EXTT12=
EXTT13=
EXTT14=
EXTT15=
EXTT16=
EXTT17=
EXTT18=
EXTT19=
PLAYORDER=
